<?xml version="1.0" encoding="UTF-8" standalone="no"?>
<!DOCTYPE svg PUBLIC "-//W3C//DTD SVG 20010904//EN"
              "http://www.w3.org/TR/2001/REC-SVG-20010904/DTD/svg10.dtd">

<svg xmlns="http://www.w3.org/2000/svg"
     width="28.5111in" height="9.8in"
     viewBox="0 0 2566 882">
  <path id="Selection"
        fill="none" stroke="black" stroke-width="1"
        d="M 226.00,880.00
           C 226.00,880.00 226.00,878.00 226.00,878.00
             226.00,878.00 213.00,868.43 213.00,868.43
             213.00,868.43 187.00,850.69 187.00,850.69
             187.00,850.69 162.00,835.77 162.00,835.77
             150.24,828.37 130.74,812.78 121.02,802.96
             104.68,786.45 93.78,767.19 82.70,747.00
             62.77,710.71 51.98,689.07 44.58,648.00
             43.03,639.42 41.11,627.62 41.09,619.00
             41.09,619.00 41.09,587.00 41.09,587.00
             43.36,564.10 54.74,522.16 65.32,502.00
             77.58,478.64 98.50,454.81 118.00,437.17
             141.10,416.27 166.15,398.51 191.00,379.87
             204.24,369.94 221.54,357.58 232.87,345.83
             242.22,336.13 249.88,325.10 255.74,313.00
             262.21,299.64 265.04,288.75 273.88,276.00
             300.62,237.49 341.28,224.62 386.01,222.08
             391.30,221.78 393.08,222.34 398.00,222.83
             415.31,224.56 425.06,227.87 441.00,234.58
             453.19,239.70 463.04,243.99 472.99,253.17
             479.12,258.82 482.39,264.99 486.60,272.00
             489.54,276.90 490.70,280.35 496.00,283.00
             499.54,268.43 493.25,244.35 483.67,233.01
             479.96,228.62 470.91,221.94 466.00,218.43
             460.01,214.15 453.44,209.73 447.00,206.17
             443.48,204.23 437.16,201.30 435.17,197.82
             433.54,194.94 433.96,187.50 434.00,184.00
             434.00,184.00 439.00,150.00 439.00,150.00
             449.26,156.94 447.79,158.37 455.29,167.00
             461.13,173.73 471.18,183.97 478.00,189.72
             506.53,213.71 557.35,235.56 595.00,236.00
             595.00,236.00 615.00,236.00 615.00,236.00
             644.48,235.95 680.86,223.54 706.00,208.55
             720.20,200.08 736.45,186.46 749.00,175.58
             763.67,162.86 775.84,147.53 787.37,132.00
             790.32,128.03 798.27,118.19 796.38,113.11
             794.38,107.72 784.70,108.95 780.00,109.00
             780.00,109.00 743.00,113.34 743.00,113.34
             722.83,112.47 700.38,98.58 684.00,87.67
             665.03,75.02 626.76,49.88 607.00,41.43
             589.43,33.91 555.81,23.03 537.00,23.00
             522.22,22.98 518.88,22.94 504.00,25.43
             489.51,27.87 484.50,29.11 471.00,35.31
             466.53,37.36 456.69,43.05 452.00,42.39
             447.25,41.73 440.34,34.37 437.00,31.00
             425.93,19.81 416.80,2.31 399.00,1.10
             387.88,0.34 378.63,8.64 379.21,20.00
             379.84,32.55 385.58,44.05 388.85,56.00
             393.63,73.48 395.83,89.01 397.09,107.00
             397.09,107.00 398.00,117.00 398.00,117.00
             398.18,132.41 398.25,147.72 396.13,163.00
             395.31,168.91 394.91,177.36 390.73,181.86
             386.70,186.18 381.42,185.99 376.00,186.00
             364.97,186.02 353.94,185.72 343.00,187.30
             316.45,191.13 284.65,205.88 265.00,224.09
             251.50,236.60 242.04,248.86 233.31,265.00
             233.31,265.00 219.56,295.00 219.56,295.00
             213.63,305.65 208.61,310.58 200.00,318.99
             190.21,328.54 168.73,344.08 157.00,352.87
             131.64,371.89 105.94,391.10 83.00,413.04
             62.31,432.83 37.60,465.02 25.47,491.00
             20.98,500.62 18.09,510.89 14.98,521.00
             14.98,521.00 5.45,555.00 5.45,555.00
             1.07,576.79 0.84,598.86 1.00,621.00
             1.00,621.00 2.83,644.00 2.83,644.00
             6.79,683.58 16.54,714.12 35.70,749.00
             54.96,784.09 72.46,806.22 104.00,831.45
             112.75,838.45 121.50,845.09 131.00,851.05
             153.20,864.98 172.30,872.66 198.00,877.80
             206.86,879.57 217.12,882.52 226.00,880.00 Z
           M 528.00,62.28
           C 543.26,60.87 561.73,65.24 576.00,70.58
             608.72,82.82 637.48,105.10 667.00,123.58
             667.00,123.58 698.00,142.14 698.00,142.14
             701.13,143.87 708.06,146.66 709.16,150.18
             711.12,156.52 699.50,163.04 694.00,160.98
             686.22,158.06 681.56,146.87 674.91,141.79
             666.99,135.73 655.40,137.11 646.00,137.00
             634.58,136.86 613.57,130.94 602.00,127.88
             574.38,120.59 550.05,114.67 524.00,102.30
             515.79,98.40 505.51,92.38 498.00,87.25
             495.35,85.45 490.69,82.32 490.08,78.99
             489.26,74.47 494.56,70.85 498.00,69.13
             507.24,64.52 517.95,63.74 528.00,62.28 Z
           M 483.92,125.78
           C 490.31,125.58 495.86,129.87 501.00,132.86
             509.74,137.94 518.71,142.19 528.00,146.15
             556.92,158.47 588.11,167.01 619.00,172.58
             619.00,172.58 651.00,175.84 651.00,175.84
             653.67,176.12 660.27,176.04 661.27,179.21
             662.61,183.45 650.99,187.61 648.00,188.80
             635.25,193.85 613.74,197.10 600.00,197.00
             580.68,196.86 544.40,186.52 528.00,176.54
             521.21,172.40 511.17,163.90 505.00,158.58
             499.36,153.71 487.55,142.93 483.92,137.00
             481.19,133.15 479.64,128.53 483.92,125.78 Z
           M 1467.00,359.53
           C 1456.45,362.88 1453.05,370.56 1453.00,381.00
             1453.00,381.00 1453.00,431.00 1453.00,431.00
             1453.00,431.00 1453.00,656.00 1453.00,656.00
             1453.01,661.52 1453.03,664.98 1455.90,669.96
             1461.95,680.43 1477.14,682.29 1485.47,673.53
             1490.44,668.32 1490.99,662.77 1491.00,656.00
             1491.00,656.00 1491.00,426.00 1491.00,426.00
             1491.00,426.00 1491.00,380.00 1491.00,380.00
             1490.82,365.42 1481.48,357.14 1467.00,359.53 Z
           M 418.00,638.00
           C 423.10,644.20 427.14,651.28 433.04,656.83
             447.03,670.00 467.82,677.97 487.00,678.00
             498.32,678.02 508.06,677.43 519.00,673.97
             526.80,671.50 533.16,668.42 540.00,663.92
             569.42,644.58 584.95,605.33 585.00,571.00
             585.00,571.00 585.00,553.00 585.00,553.00
             584.99,546.02 583.94,538.87 582.75,532.00
             574.70,485.61 543.00,446.59 493.00,446.00
             469.25,445.73 448.73,451.52 431.04,468.17
             425.14,473.72 421.10,480.80 415.87,487.00
             415.87,487.00 415.87,471.00 415.87,471.00
             416.00,468.09 416.17,461.52 415.87,459.00
             413.95,451.60 407.41,446.61 400.00,446.10
             386.41,445.15 380.06,454.51 380.00,467.00
             380.00,467.00 380.00,511.00 380.00,511.00
             380.00,511.00 380.00,731.00 380.00,731.00
             380.01,736.52 380.03,739.98 382.90,744.96
             388.95,755.43 404.14,757.29 412.47,748.53
             417.44,743.32 417.99,737.77 418.00,731.00
             418.00,731.00 418.00,638.00 418.00,638.00 Z
           M 650.00,573.00
           C 650.00,573.00 788.00,573.00 788.00,573.00
             792.89,572.99 797.54,572.91 802.00,570.56
             809.55,566.58 811.90,558.99 812.00,551.00
             812.15,538.62 809.95,522.71 805.92,511.00
             793.15,473.89 760.08,446.47 720.00,446.00
             692.91,445.69 668.90,450.52 648.00,469.17
             618.74,495.29 611.94,531.71 612.00,569.00
             612.05,601.21 623.00,635.30 648.00,656.70
             669.41,675.02 695.78,679.31 723.00,679.00
             750.94,678.67 780.38,667.00 797.08,644.00
             803.30,635.43 811.46,620.23 804.30,610.04
             799.69,603.48 788.66,602.03 782.00,606.01
             777.01,608.99 772.32,616.36 768.41,621.00
             762.43,628.10 755.26,634.52 747.00,638.88
             739.83,642.66 733.91,644.03 726.00,645.13
             702.43,648.41 679.66,641.50 664.90,622.00
             654.32,608.02 650.38,590.24 650.00,573.00 Z
           M 987.00,542.00
           C 987.00,542.00 949.00,544.00 949.00,544.00
             949.00,544.00 935.00,545.00 935.00,545.00
             920.33,545.17 899.74,547.06 886.00,552.05
             871.82,557.21 859.62,564.45 850.78,577.00
             835.36,598.90 838.57,635.27 856.17,655.00
             882.14,684.12 931.74,686.46 963.00,664.56
             973.72,657.05 982.73,648.16 988.00,636.00
             991.17,647.18 985.66,662.28 992.65,671.98
             999.17,681.04 1013.51,681.56 1020.61,672.96
             1024.77,667.91 1024.99,663.17 1025.00,657.00
             1025.00,657.00 1025.00,518.00 1025.00,518.00
             1024.99,510.54 1023.94,503.11 1021.66,496.00
             1018.46,486.03 1013.36,476.56 1005.91,469.09
             982.01,445.11 938.22,441.61 907.00,450.15
             887.26,455.55 868.67,465.97 858.01,484.00
             854.95,489.19 852.46,494.91 852.09,501.00
             851.40,512.28 857.79,519.01 869.00,518.99
             871.90,518.99 874.34,518.89 877.00,517.55
             882.43,514.80 885.92,507.88 889.43,503.00
             894.69,495.68 900.89,489.48 909.00,485.37
             932.58,473.42 969.80,477.35 982.63,503.00
             988.33,514.42 987.00,529.47 987.00,542.00 Z
           M 1109.00,485.00
           C 1107.36,479.23 1108.01,472.96 1108.00,467.00
             1107.98,456.37 1104.18,446.95 1092.00,446.10
             1082.21,445.41 1074.06,451.15 1072.08,461.00
             1072.08,461.00 1072.08,475.00 1072.08,475.00
             1072.08,475.00 1072.08,494.00 1072.08,494.00
             1072.08,494.00 1072.08,656.00 1072.08,656.00
             1072.01,662.77 1072.56,668.32 1077.53,673.53
             1085.86,682.29 1101.05,680.43 1107.10,669.96
             1109.97,664.98 1109.99,661.52 1110.00,656.00
             1110.00,656.00 1110.00,555.00 1110.00,555.00
             1110.00,532.91 1108.10,514.30 1123.46,496.01
             1131.04,487.00 1141.58,483.27 1153.00,482.17
             1162.69,481.23 1173.85,483.37 1179.91,472.99
             1184.21,465.63 1182.10,454.57 1174.98,449.70
             1170.35,446.53 1163.47,445.89 1158.00,446.01
             1136.44,446.50 1113.95,463.92 1109.00,485.00 Z
           M 1246.00,638.00
           C 1251.10,644.20 1255.14,651.28 1261.04,656.83
             1275.03,670.00 1295.82,677.97 1315.00,678.00
             1326.32,678.02 1336.06,677.43 1347.00,673.97
             1354.80,671.50 1361.16,668.42 1368.00,663.92
             1397.42,644.58 1412.95,605.33 1413.00,571.00
             1413.00,571.00 1413.00,553.00 1413.00,553.00
             1412.99,546.02 1411.94,538.87 1410.75,532.00
             1402.70,485.61 1371.00,446.59 1321.00,446.00
             1297.25,445.73 1276.73,451.52 1259.04,468.17
             1253.14,473.72 1249.10,480.80 1243.87,487.00
             1243.87,487.00 1243.87,471.00 1243.87,471.00
             1244.00,468.09 1244.17,461.52 1243.87,459.00
             1241.95,451.60 1235.41,446.61 1228.00,446.10
             1214.41,445.15 1208.06,454.51 1208.00,467.00
             1208.00,467.00 1208.00,511.00 1208.00,511.00
             1208.00,511.00 1208.00,731.00 1208.00,731.00
             1208.01,737.77 1208.56,743.32 1213.53,748.53
             1221.86,757.29 1237.05,755.43 1243.10,744.96
             1245.97,739.98 1245.99,736.52 1246.00,731.00
             1246.00,731.00 1246.00,638.00 1246.00,638.00 Z
           M 1678.00,542.00
           C 1678.00,542.00 1640.00,544.00 1640.00,544.00
             1640.00,544.00 1626.00,545.00 1626.00,545.00
             1611.33,545.17 1590.74,547.06 1577.00,552.05
             1562.82,557.21 1550.62,564.45 1541.78,577.00
             1526.36,598.90 1529.57,635.27 1547.17,655.00
             1573.14,684.12 1622.74,686.46 1654.00,664.56
             1664.72,657.05 1673.73,648.16 1679.00,636.00
             1682.17,647.18 1676.66,662.28 1683.65,671.98
             1690.17,681.04 1704.51,681.56 1711.61,672.96
             1715.77,667.91 1715.99,663.17 1716.00,657.00
             1716.00,657.00 1716.00,518.00 1716.00,518.00
             1715.99,510.54 1714.94,503.11 1712.66,496.00
             1709.46,486.03 1704.36,476.56 1696.91,469.09
             1673.01,445.11 1629.22,441.61 1598.00,450.15
             1578.26,455.55 1559.67,465.97 1549.01,484.00
             1545.95,489.19 1543.46,494.91 1543.09,501.00
             1542.40,512.28 1548.79,519.01 1560.00,518.99
             1562.90,518.99 1565.34,518.89 1568.00,517.55
             1573.43,514.80 1576.92,507.88 1580.43,503.00
             1585.69,495.68 1591.89,489.48 1600.00,485.37
             1623.58,473.42 1660.80,477.35 1673.63,503.00
             1679.33,514.42 1678.00,529.47 1678.00,542.00 Z
           M 1800.00,485.00
           C 1796.35,472.15 1804.65,455.05 1789.00,447.57
             1787.12,446.67 1785.07,446.24 1783.00,446.10
             1773.21,445.41 1765.06,451.15 1763.08,461.00
             1763.08,461.00 1763.08,475.00 1763.08,475.00
             1763.08,475.00 1763.08,494.00 1763.08,494.00
             1763.08,494.00 1763.08,656.00 1763.08,656.00
             1763.01,661.52 1763.03,664.98 1765.90,669.96
             1771.95,680.43 1787.14,682.29 1795.47,673.53
             1800.44,668.32 1800.99,662.77 1801.00,656.00
             1801.00,656.00 1801.00,564.00 1801.00,564.00
             1801.00,541.34 1798.91,522.92 1812.36,503.00
             1825.13,484.09 1847.09,476.79 1869.00,479.87
             1878.18,481.16 1886.93,483.92 1894.00,490.18
             1906.61,501.36 1910.97,518.68 1911.00,535.00
             1911.00,535.00 1911.00,656.00 1911.00,656.00
             1911.01,661.52 1911.03,664.98 1913.90,669.96
             1919.95,680.43 1935.14,682.29 1943.47,673.53
             1948.44,668.32 1948.99,662.77 1949.00,656.00
             1949.00,656.00 1949.00,526.00 1949.00,526.00
             1948.96,499.29 1939.16,472.66 1916.00,457.66
             1890.95,441.51 1850.23,442.25 1825.00,457.66
             1815.36,463.49 1804.09,474.32 1800.00,485.00 Z
           M 2033.00,485.00
           C 2029.35,472.15 2037.65,455.05 2022.00,447.57
             2020.12,446.67 2018.07,446.24 2016.00,446.10
             2006.21,445.41 1998.06,451.15 1996.08,461.00
             1996.08,461.00 1996.08,475.00 1996.08,475.00
             1996.08,475.00 1996.08,494.00 1996.08,494.00
             1996.08,494.00 1996.08,656.00 1996.08,656.00
             1996.01,661.52 1996.03,664.98 1998.90,669.96
             2004.95,680.43 2020.14,682.29 2028.47,673.53
             2033.44,668.32 2033.99,662.77 2034.00,656.00
             2034.00,656.00 2034.00,564.00 2034.00,564.00
             2034.00,541.34 2031.91,522.92 2045.36,503.00
             2058.13,484.09 2080.09,476.79 2102.00,479.87
             2111.18,481.16 2119.93,483.92 2127.00,490.18
             2139.61,501.36 2143.97,518.68 2144.00,535.00
             2144.00,535.00 2144.00,656.00 2144.00,656.00
             2144.01,661.52 2144.03,664.98 2146.90,669.96
             2152.95,680.43 2168.14,682.29 2176.47,673.53
             2181.44,668.32 2181.99,662.77 2182.00,656.00
             2182.00,656.00 2182.00,526.00 2182.00,526.00
             2181.96,499.29 2172.16,472.66 2149.00,457.66
             2123.95,441.51 2083.23,442.25 2058.00,457.66
             2048.36,463.49 2037.09,474.32 2033.00,485.00 Z
           M 2256.00,573.00
           C 2256.00,573.00 2394.00,573.00 2394.00,573.00
             2398.89,572.99 2403.54,572.91 2408.00,570.56
             2415.55,566.58 2417.90,558.99 2418.00,551.00
             2418.15,538.62 2415.95,522.71 2411.92,511.00
             2399.15,473.89 2366.08,446.47 2326.00,446.00
             2298.91,445.69 2274.90,450.52 2254.00,469.17
             2224.74,495.29 2217.94,531.71 2218.00,569.00
             2218.05,601.21 2229.00,635.30 2254.00,656.70
             2275.41,675.02 2301.78,679.31 2329.00,679.00
             2356.94,678.67 2386.38,667.00 2403.08,644.00
             2409.30,635.43 2417.46,620.23 2410.30,610.04
             2405.69,603.48 2394.66,602.03 2388.00,606.01
             2383.01,608.99 2378.32,616.36 2374.41,621.00
             2368.43,628.10 2361.26,634.52 2353.00,638.88
             2345.83,642.66 2339.91,644.03 2332.00,645.13
             2308.43,648.41 2285.66,641.50 2270.90,622.00
             2260.32,608.02 2256.38,590.24 2256.00,573.00 Z
           M 2493.00,485.00
           C 2491.36,479.23 2492.01,472.96 2492.00,467.00
             2491.98,456.37 2488.18,446.95 2476.00,446.10
             2466.21,445.41 2458.06,451.15 2456.08,461.00
             2456.08,461.00 2456.08,475.00 2456.08,475.00
             2456.08,475.00 2456.08,494.00 2456.08,494.00
             2456.08,494.00 2456.08,656.00 2456.08,656.00
             2456.01,661.52 2456.03,664.98 2458.90,669.96
             2464.95,680.43 2480.14,682.29 2488.47,673.53
             2493.44,668.32 2493.99,662.77 2494.00,656.00
             2494.00,656.00 2494.00,555.00 2494.00,555.00
             2494.00,532.91 2492.10,514.30 2507.46,496.01
             2515.04,487.00 2525.58,483.27 2537.00,482.17
             2546.69,481.23 2557.85,483.37 2563.91,472.99
             2568.21,465.63 2566.10,454.57 2558.98,449.70
             2554.35,446.53 2547.47,445.89 2542.00,446.01
             2520.44,446.50 2497.95,463.92 2493.00,485.00 Z
           M 112.00,476.64
           C 106.83,478.59 103.91,480.72 100.33,485.00
             94.37,492.13 84.68,515.56 81.31,525.00
             73.11,547.97 69.88,564.99 66.72,589.00
             66.72,589.00 64.79,604.00 64.79,604.00
             64.79,604.00 64.79,620.00 64.79,620.00
             65.44,642.53 67.33,653.40 73.98,675.00
             78.09,688.36 87.92,713.98 97.18,723.96
             102.90,730.12 114.80,734.63 123.04,731.72
             130.37,729.13 136.31,719.73 135.59,712.00
             135.24,708.27 131.47,699.58 129.74,696.00
             122.80,681.66 115.82,667.39 111.43,652.00
             102.90,622.12 104.24,589.79 112.42,560.00
             116.09,546.68 120.81,533.68 126.28,521.00
             129.22,514.18 135.17,501.92 135.82,495.00
             137.08,481.80 123.88,474.25 112.00,476.64 Z
           M 476.00,479.29
           C 509.36,476.17 531.88,495.27 542.00,526.00
             544.72,534.27 546.89,547.31 547.00,556.00
             547.40,590.29 539.45,630.30 502.00,642.25
             495.29,644.40 487.03,645.08 480.00,645.00
             449.60,644.64 431.02,623.18 422.34,596.00
             420.00,588.67 418.09,577.68 418.00,570.00
             418.00,570.00 418.00,556.00 418.00,556.00
             418.04,530.88 428.82,501.12 451.00,487.47
             459.27,482.37 466.59,480.72 476.00,479.29 Z
           M 773.00,544.00
           C 773.00,544.00 651.00,544.00 651.00,544.00
             651.02,522.62 661.02,500.84 679.00,488.75
             707.67,469.47 749.69,478.58 765.63,510.00
             770.98,520.54 773.00,532.29 773.00,544.00 Z
           M 1304.00,479.29
           C 1337.36,476.17 1359.88,495.27 1370.00,526.00
             1372.72,534.27 1374.89,547.31 1375.00,556.00
             1375.40,590.29 1367.45,630.30 1330.00,642.25
             1323.29,644.40 1315.03,645.08 1308.00,645.00
             1277.60,644.64 1259.02,623.18 1250.34,596.00
             1248.00,588.67 1246.09,577.68 1246.00,570.00
             1246.00,570.00 1246.00,556.00 1246.00,556.00
             1246.04,530.88 1256.82,501.12 1279.00,487.47
             1287.27,482.37 1294.59,480.72 1304.00,479.29 Z
           M 2379.00,544.00
           C 2379.00,544.00 2257.00,544.00 2257.00,544.00
             2257.02,522.62 2267.02,500.84 2285.00,488.75
             2313.67,469.47 2355.69,478.58 2371.63,510.00
             2376.98,520.54 2379.00,532.29 2379.00,544.00 Z
           M 987.00,571.00
           C 987.00,571.00 987.00,589.00 987.00,589.00
             986.95,622.54 959.86,646.61 927.00,647.00
             915.13,647.14 901.47,645.50 892.00,637.67
             878.61,626.62 874.17,606.26 885.39,592.00
             891.84,583.80 901.09,579.55 911.00,577.13
             919.64,575.02 933.01,574.10 942.00,574.00
             942.00,574.00 952.00,573.09 952.00,573.09
             952.00,573.09 978.00,571.91 978.00,571.91
             978.00,571.91 987.00,571.00 987.00,571.00 Z
           M 1678.00,571.00
           C 1678.00,571.00 1678.00,589.00 1678.00,589.00
             1677.95,622.54 1650.86,646.61 1618.00,647.00
             1606.13,647.14 1592.47,645.50 1583.00,637.67
             1569.61,626.62 1565.17,606.26 1576.39,592.00
             1582.84,583.80 1592.09,579.55 1602.00,577.13
             1610.64,575.02 1624.01,574.10 1633.00,574.00
             1633.00,574.00 1643.00,573.09 1643.00,573.09
             1643.00,573.09 1669.00,571.91 1669.00,571.91
             1669.00,571.91 1678.00,571.00 1678.00,571.00 Z" />
</svg>
