<svg id="Capa_1" enable-background="new 0 0 512 512" height="512" viewBox="0 0 512 512" width="512" xmlns="http://www.w3.org/2000/svg"><g><path d="m412.903 404.742h-355.129c-13.682 0-24.774-11.092-24.774-24.774v-280.871c0-13.682 11.092-24.774 24.774-24.774h355.129c13.682 0 24.774 11.092 24.774 24.774v280.871c.001 13.682-11.091 24.774-24.774 24.774z" fill="#eceaec"/><path d="m412.903 33.032h-363.355c-2.895 0-5.674.497-8.256 1.409l-8.851 56.301 405.237-8.161v-24.774c0-13.683-11.092-24.775-24.775-24.775z" fill="#ffe07d"/><path d="m49.549 396.387c-4.561 0-8.258-3.697-8.258-8.258v-289.032h-16.517v289.032c0 13.682 11.092 24.774 24.774 24.774h363.355c10.771 0 19.844-6.916 23.257-16.516z" fill="#dad8db"/><path d="m41.29 66.065v-31.629c-9.584 3.415-16.516 12.613-16.516 23.37v41.29h412.903v-16.515h-379.87c-9.122 0-16.517-7.395-16.517-16.516z" fill="#ffd064"/><path d="m82.581 49.548c-9.122 0-16.516-7.395-16.516-16.516v-16.516c0-9.121 7.394-16.516 16.516-16.516 9.122 0 16.516 7.395 16.516 16.516v16.516c0 9.122-7.395 16.516-16.516 16.516z" fill="#eceaec"/><path d="m82.581 66.065c-9.122 0-16.516-7.395-16.516-16.516v-16.517h33.032v16.516c0 9.122-7.395 16.517-16.516 16.517z" fill="#dad8db"/><path d="m379.871 49.548c-9.122 0-16.516-7.395-16.516-16.516v-16.516c0-9.121 7.394-16.516 16.516-16.516 9.122 0 16.516 7.395 16.516 16.516v16.516c0 9.122-7.394 16.516-16.516 16.516z" fill="#eceaec"/><path d="m379.871 66.065c-9.122 0-16.516-7.395-16.516-16.516v-16.517h33.032v16.516c0 9.122-7.394 16.517-16.516 16.517z" fill="#dad8db"/><g fill="#fff"><path d="m239.484 181.678h-16.516c-4.565 0-8.258-3.698-8.258-8.258s3.694-8.258 8.258-8.258h16.516c4.565 0 8.258 3.698 8.258 8.258s-3.694 8.258-8.258 8.258z"/><path d="m297.29 181.678h-16.516c-4.565 0-8.258-3.698-8.258-8.258s3.694-8.258 8.258-8.258h16.516c4.565 0 8.258 3.698 8.258 8.258s-3.693 8.258-8.258 8.258z"/><path d="m181.678 181.678h-16.516c-4.565 0-8.258-3.698-8.258-8.258s3.694-8.258 8.258-8.258h16.516c4.565 0 8.258 3.698 8.258 8.258s-3.694 8.258-8.258 8.258z"/><path d="m239.484 222.968h-16.516c-4.565 0-8.258-3.698-8.258-8.258s3.694-8.258 8.258-8.258h16.516c4.565 0 8.258 3.698 8.258 8.258s-3.694 8.258-8.258 8.258z"/><path d="m297.29 222.968h-16.516c-4.565 0-8.258-3.698-8.258-8.258s3.694-8.258 8.258-8.258h16.516c4.565 0 8.258 3.698 8.258 8.258s-3.693 8.258-8.258 8.258z"/><path d="m181.678 222.968h-16.516c-4.565 0-8.258-3.698-8.258-8.258s3.694-8.258 8.258-8.258h16.516c4.565 0 8.258 3.698 8.258 8.258s-3.694 8.258-8.258 8.258z"/><path d="m239.484 264.258h-16.516c-4.565 0-8.258-3.698-8.258-8.258 0-4.561 3.694-8.258 8.258-8.258h16.516c4.565 0 8.258 3.698 8.258 8.258 0 4.561-3.694 8.258-8.258 8.258z"/><path d="m297.29 264.258h-16.516c-4.565 0-8.258-3.698-8.258-8.258 0-4.561 3.694-8.258 8.258-8.258h16.516c4.565 0 8.258 3.698 8.258 8.258 0 4.561-3.693 8.258-8.258 8.258z"/><path d="m181.678 264.258h-16.516c-4.565 0-8.258-3.698-8.258-8.258 0-4.561 3.694-8.258 8.258-8.258h16.516c4.565 0 8.258 3.698 8.258 8.258 0 4.561-3.694 8.258-8.258 8.258z"/><path d="m239.484 305.549h-16.516c-4.565 0-8.258-3.698-8.258-8.258s3.694-8.258 8.258-8.258h16.516c4.565 0 8.258 3.698 8.258 8.258s-3.694 8.258-8.258 8.258z"/><path d="m297.29 305.549h-16.516c-4.565 0-8.258-3.698-8.258-8.258s3.694-8.258 8.258-8.258h16.516c4.565 0 8.258 3.698 8.258 8.258s-3.693 8.258-8.258 8.258z"/><path d="m181.678 305.549h-16.516c-4.565 0-8.258-3.698-8.258-8.258s3.694-8.258 8.258-8.258h16.516c4.565 0 8.258 3.698 8.258 8.258s-3.694 8.258-8.258 8.258z"/><path d="m239.484 346.839h-16.516c-4.565 0-8.258-3.698-8.258-8.258s3.694-8.258 8.258-8.258h16.516c4.565 0 8.258 3.698 8.258 8.258s-3.694 8.258-8.258 8.258z"/><path d="m297.29 346.839h-16.516c-4.565 0-8.258-3.698-8.258-8.258s3.694-8.258 8.258-8.258h16.516c4.565 0 8.258 3.698 8.258 8.258s-3.693 8.258-8.258 8.258z"/><path d="m181.678 346.839h-16.516c-4.565 0-8.258-3.698-8.258-8.258s3.694-8.258 8.258-8.258h16.516c4.565 0 8.258 3.698 8.258 8.258s-3.694 8.258-8.258 8.258z"/><path d="m123.871 181.678h-16.516c-4.565 0-8.258-3.698-8.258-8.258s3.694-8.258 8.258-8.258h16.516c4.565 0 8.258 3.698 8.258 8.258s-3.693 8.258-8.258 8.258z"/><path d="m123.871 222.968h-16.516c-4.565 0-8.258-3.698-8.258-8.258s3.694-8.258 8.258-8.258h16.516c4.565 0 8.258 3.698 8.258 8.258s-3.693 8.258-8.258 8.258z"/><path d="m123.871 264.258h-16.516c-4.565 0-8.258-3.698-8.258-8.258 0-4.561 3.694-8.258 8.258-8.258h16.516c4.565 0 8.258 3.698 8.258 8.258 0 4.561-3.693 8.258-8.258 8.258z"/><path d="m123.871 305.549h-16.516c-4.565 0-8.258-3.698-8.258-8.258s3.694-8.258 8.258-8.258h16.516c4.565 0 8.258 3.698 8.258 8.258s-3.693 8.258-8.258 8.258z"/><path d="m123.871 346.839h-16.516c-4.565 0-8.258-3.698-8.258-8.258s3.694-8.258 8.258-8.258h16.516c4.565 0 8.258 3.698 8.258 8.258s-3.693 8.258-8.258 8.258z"/><path d="m355.097 181.678h-16.516c-4.565 0-8.258-3.698-8.258-8.258s3.694-8.258 8.258-8.258h16.516c4.565 0 8.258 3.698 8.258 8.258s-3.694 8.258-8.258 8.258z"/><path d="m355.097 346.839h-16.516c-4.565 0-8.258-3.698-8.258-8.258s3.694-8.258 8.258-8.258h16.516c4.565 0 8.258 3.698 8.258 8.258s-3.694 8.258-8.258 8.258z"/><path d="m355.097 222.968h-16.516c-4.565 0-8.258-3.698-8.258-8.258s3.694-8.258 8.258-8.258h16.516c4.565 0 8.258 3.698 8.258 8.258s-3.694 8.258-8.258 8.258z"/><path d="m355.097 305.549h-16.516c-4.565 0-8.258-3.698-8.258-8.258s3.694-8.258 8.258-8.258h16.516c4.565 0 8.258 3.698 8.258 8.258s-3.694 8.258-8.258 8.258z"/><path d="m355.097 264.258h-16.516c-4.565 0-8.258-3.698-8.258-8.258 0-4.561 3.694-8.258 8.258-8.258h16.516c4.565 0 8.258 3.698 8.258 8.258 0 4.561-3.694 8.258-8.258 8.258z"/></g><path d="m444.465 368.619 24.339-30.035c1.241-4.331 1.906-8.906 1.906-13.639v-60.687h-63.043v189.935h63.043v-19.396c0-18.931-10.636-35.342-26.245-43.675-4.167-2.225-6.788-6.527-6.788-11.252.001-4.723 2.621-9.026 6.788-11.251z" fill="#eceaec"/><path d="m371.613 264.258v60.687c0 4.731.664 9.306 1.905 13.635l24.34 30.039c4.167 2.225 6.788 6.528 6.788 11.252s-2.62 9.027-6.788 11.252c-15.609 8.333-26.245 24.744-26.245 43.675v19.396h41.29v-189.936z" fill="#dad8db"/><path d="m412.903 247.742h57.806c9.122 0 16.516 7.395 16.516 16.516 0 9.122-7.395 16.516-16.516 16.516h-57.806c-9.122 0-16.516-7.395-16.516-16.516 0-9.121 7.395-16.516 16.516-16.516z" fill="#ffe07d"/><path d="m440.451 434.021c-6.892-4.595-11.032-12.33-11.032-20.613v-19.064c0-10.627 5.624-20.636 14.974-25.687.024-.013.048-.026.072-.038 11.707-6.25 20.616-17.045 24.339-30.038h-55.901l-15.046 20.753c.023.012.047-.013.072 0 9.35 5.051 14.974 24.383 14.974 35.01v19.064c0 8.283-4.14 34.825-11.032 39.42l4.795 42.656h64.043v-41.291z" fill="#ffd064"/><g fill="#ffc250"><path d="m412.903 413.408c0 8.283-4.14 16.019-11.032 20.613l-30.259 20.172v41.29h41.29v-82.075z"/><path d="m397.929 368.657c9.35 5.051 14.974 15.059 14.974 25.686v-55.763h-39.385c3.723 12.993 12.632 23.788 24.339 30.038z"/></g><path d="m412.903 478.968h57.806c9.122 0 16.516 7.395 16.516 16.516 0 9.122-7.395 16.516-16.516 16.516h-57.806c-9.122 0-16.516-7.394-16.516-16.516 0-9.122 7.395-16.516 16.516-16.516z" fill="#ffe07d"/><path d="m412.903 247.742h-41.29c-9.121 0-16.516 7.394-16.516 16.516 0 9.121 7.395 16.516 16.516 16.516h41.29z" fill="#ffd064"/><path d="m412.903 478.968h-41.29c-9.121 0-16.516 7.394-16.516 16.516 0 9.121 7.395 16.516 16.516 16.516h41.29z" fill="#ffd064"/></g></svg>