<?xml version="1.0" encoding="iso-8859-1"?>
<!-- Generator: Adobe Illustrator 19.0.0, SVG Export Plug-In . SVG Version: 6.00 Build 0)  -->
<svg version="1.1" id="Layer_1" xmlns="http://www.w3.org/2000/svg" xmlns:xlink="http://www.w3.org/1999/xlink" x="0px" y="0px"
	 viewBox="0 0 511.6 511.6" style="enable-background:new 0 0 511.6 511.6;" xml:space="preserve">
<path style="fill:#DCE775;" d="M180.6,178.8c15.6-53.2,20.8-94,73.2-94.8c0.4,0,1.2,0,1.6,0c54,0,59.2,40.8,75.2,94.8
	c20,68.8,98,108.8,98,192.4c0,89.6-75.2,136.8-172,136.8H255c-97.2,0-172-47.2-172-136.8C82.6,287.6,160.6,247.6,180.6,178.8z"/>
<path style="fill:#7CB342;" d="M308.2,4.4c-0.8,13.2-6,26-16,36.4c-10,10-23.2,15.6-36.4,16c0.8-13.2,6-26,16-36.4
	C282.2,10.4,295,4.8,308.2,4.4z"/>
<path d="M255.8,88c-2.4,0-4-1.6-4-4V30.8c0-7.6-3.6-12-11.6-14c-2-0.4-3.6-2.8-2.8-4.8c0.4-2,2.8-3.6,4.8-2.8
	c11.6,2.8,17.6,10.4,17.6,21.6V84C259.8,86.4,258.2,88,255.8,88z"/>
<path d="M255.8,60.4c-1.2,0-2-0.4-2.8-1.2c-0.8-0.8-1.2-2-1.2-3.2c0.8-14.8,6.8-28.4,17.2-38.8S293,0.8,307.8,0
	c1.2,0,2.4,0.4,3.2,1.2c0.8,0.8,1.2,2,1.2,3.2c-0.8,14.8-6.8,28.4-17.2,38.8C284.6,53.6,270.6,59.6,255.8,60.4L255.8,60.4z
	 M303.8,8.8c-10.8,1.6-21.2,6.8-28.8,14.4c-8,8-12.8,18-14.4,28.8c10.8-1.6,21.2-6.8,28.8-14.4C297,29.6,302.2,19.6,303.8,8.8z"/>
<path d="M256.6,511.6c-0.4,0-0.4,0-0.8,0c-0.4,0-0.4,0-0.8,0c-107.2,0-176-55.2-176-140.8c0-50,27.2-84.4,53.2-118
	c18.8-24,36.8-47.2,44.8-75.2c1.6-5.6,3.2-10.8,4.4-16c12.4-45.2,22.4-80.8,72.4-81.6c0.4,0,1.2,0,2,0c51.6,0,61.6,36,74.4,81.6
	c1.6,5.2,2.8,10.4,4.4,16c8.4,28,26,50.8,44.8,75.2c26,33.6,53.2,68,53.2,118C432.6,456.4,363.8,511.6,256.6,511.6z M255.4,88
	c-0.4,0-0.8,0-1.2,0c-44,0.8-52.4,30.4-65.2,75.6c-1.6,5.2-2.8,10.4-4.4,16c-8.8,29.6-28,54-46.4,78c-25.2,32.4-51.6,66-51.6,113.2
	c0,80.8,66,132.8,168,132.8c0.4,0,0.4,0,0.8,0c0.4,0,0.4,0,0.8,0c102,0,168-52,168-132.8c0-47.2-26-80.8-51.6-113.2
	c-18.4-23.6-37.6-48.4-46.4-78c-1.6-5.6-3.2-10.8-4.4-16.4C309.8,118,301.4,88,255.4,88C255.8,88,255.8,88,255.4,88z"/>
<path d="M131,436.8c-1.2,0-2.4-0.4-3.2-1.6c-14-17.6-20.8-39.2-20.8-64.4c0-8,0.8-15.6,2.4-23.2c0.4-2,2.8-3.6,4.8-3.2
	s3.6,2.8,3.2,4.8c-1.6,6.8-2.4,14-2.4,21.2c0,23.6,6.4,43.6,19.2,59.6c1.2,1.6,1.2,4.4-0.8,5.6C132.6,436.4,131.8,436.8,131,436.8z"
	/>
<path d="M400.6,374.8c-2.4,0-4-1.6-4-4c0-29.6-12.8-52.4-33.2-79.6c-1.2-1.6-0.8-4.4,0.8-5.6s4.4-0.8,5.6,0.8
	c21.6,28.4,34.8,52.8,34.8,84.4C404.6,372.8,403,374.8,400.6,374.8z"/>
<path d="M354.6,276.4c-1.2,0-2.4-0.4-3.2-1.6c-8-10.4-16.4-20.8-24-32c-1.2-2-0.8-4.4,1.2-5.6s4.4-0.8,5.6,1.2
	c7.6,11.2,15.6,21.6,23.6,31.6c1.2,1.6,1.2,4.4-0.8,5.6C356.2,276.4,355.4,276.4,354.6,276.4z"/>
<g>
</g>
<g>
</g>
<g>
</g>
<g>
</g>
<g>
</g>
<g>
</g>
<g>
</g>
<g>
</g>
<g>
</g>
<g>
</g>
<g>
</g>
<g>
</g>
<g>
</g>
<g>
</g>
<g>
</g>
</svg>
