<!DOCTYPE svg PUBLIC "-//W3C//DTD SVG 20010904//EN" "http://www.w3.org/TR/2001/REC-SVG-20010904/DTD/svg10.dtd">
<svg version="1.0" xmlns="http://www.w3.org/2000/svg" width="512px" height="512px" viewBox="0 0 5120 5120" preserveAspectRatio="xMidYMid meet">
<g id="layer101" fill="#000000" stroke="none">
 <path d="M2135 4900 c-174 -18 -433 -122 -598 -240 -104 -75 -244 -214 -327 -324 -120 -161 -213 -379 -262 -611 -19 -92 -23 -138 -22 -285 1 -161 4 -184 32 -290 67 -256 165 -428 472 -830 137 -179 176 -256 185 -363 15 -191 83 -351 204 -479 117 -125 233 -191 418 -238 55 -14 63 -30 52 -110 -28 -203 -125 -455 -228 -593 -76 -102 -89 -155 -48 -202 33 -39 91 -44 159 -13 29 14 60 32 69 40 30 30 128 80 146 74 10 -4 39 -25 64 -49 74 -67 89 -77 174 -117 129 -62 190 -75 350 -74 174 0 240 13 542 104 208 63 241 70 316 70 80 0 88 -2 187 -51 113 -55 162 -62 168 -23 3 23 -60 188 -107 283 -43 85 -141 227 -205 298 -187 206 -453 326 -721 324 -151 -1 -280 -25 -415 -78 -59 -23 -197 -105 -210 -123 -3 -4 -16 -11 -29 -15 l-24 -7 7 75 c4 42 13 98 22 126 14 49 15 50 70 61 75 16 186 54 234 81 69 39 157 193 133 232 -3 5 -31 -18 -63 -50 -72 -74 -131 -98 -281 -114 -144 -16 -239 -2 -364 54 -149 66 -217 116 -290 208 -75 96 -115 191 -125 302 -20 211 -57 287 -280 572 -225 287 -342 495 -390 695 -25 108 -28 337 -4 460 29 157 98 320 201 480 59 90 280 321 403 420 92 74 289 161 420 185 58 11 310 96 310 105 0 26 -208 44 -345 30z m1195 -3921 c88 -24 192 -77 249 -126 68 -57 48 -72 -61 -44 -197 51 -590 48 -772 -5 -68 -19 -96 -18 -96 4 0 10 11 28 24 39 42 37 228 123 296 138 102 21 271 19 360 -6z m459 -335 c34 -43 28 -61 -21 -69 -56 -9 -228 -55 -403 -110 -77 -24 -175 -50 -217 -59 -97 -20 -236 -21 -311 -1 -110 29 -217 97 -217 139 0 20 10 26 73 45 150 45 234 54 492 48 205 -4 251 -8 312 -26 103 -30 122 -28 179 19 58 46 85 50 113 14z"/>
 <path d="M1631 4296 c-46 -25 -134 -122 -196 -216 -103 -155 -143 -272 -170 -497 -18 -141 -12 -278 17 -428 19 -99 83 -140 158 -102 46 23 53 54 35 171 -27 186 -18 369 27 506 44 135 104 233 219 356 37 38 70 81 74 93 11 36 -3 88 -32 111 -30 23 -95 26 -132 6z"/>
 </g>

</svg>